# xmcd
#
# Track frame offsets:
#	150
#	11592
#	27924
#	39736
#	56716
#	72694
#	90782
#	104837
#	118704
#	126608
#	143059
#	157539
#	176790
#	193524
#	209477
#	223678
#
# Disc length: 3137 seconds
#
# Revision: 1
# Processed by: cddbd v1.5.2PL0 Copyright (c) Steve Scherf et al.
# Submitted via: EZCDAudioConverter 2.1.7.1
#
DISCID=ef0c3f10
DTITLE=Various Artist - Dat's Zydeco - The Best 'Old-Skool' Zydeco
DYEAR=2002
DGENRE=Zydeco
TTITLE0=Boozoo Chavis - Dog Hill
TTITLE1=Clifton Chenier - Oh, My Lucille
TTITLE2=Keith Frank - Bernadette C'est My 'Tit Creole
TTITLE3=Zydeco Force - You Used To Call Me
TTITLE4=Zydeco Joe - Laissez Le Bon Temp Rouler (Let The Good Time Roll)
TTITLE5=Rockin' Sidney Simien - If It's Good For The Gander
TTITLE6=John Delafose - Richard 2-Step
TTITLE7=Keith Frank - Zydeco Sont Pas Sale
TTITLE8=Willis Prudhomme and The Zydeco Express - Cornbread 2-Step
TTITLE9=Lil' Malcom and The House Rockers - Going To The Country
TTITLE10=Boozoo Chavis - Johnnie Ma Cabri (Johnnie Billie Goat)
TTITLE11=Jean Pierre and Zydeco Angles - Chere Mama
TTITLE12=Rosie Ledet - C'est Tout Finis (It's All Over)
TTITLE13=Morris Francis - Tonight Is A Good Night
TTITLE14=The Sam Bros. 5 - Josephine C'est Pas Ma Femme
TTITLE15=Zydeco Force - Shaggy Dog 2-Step
EXTD=
EXTT0=
EXTT1=
EXTT2=
EXTT3=
EXTT4=
EXTT5=
EXTT6=
EXTT7=
EXTT8=
EXTT9=
EXTT10=
EXTT11=
EXTT12=
EXTT13=
EXTT14=
EXTT15=
PLAYORDER=
